# xmcd
# 
# Track frame offsets:
#     183
#     12420
#     28958
#     44628
#     57583
#     66683
#     81773
#     93310
#     105553
#     133658
#     147703
#     157408
#     169190
#     181955
#     195658
#     206315
#     219210
#     230533
# 
# Disc length: 3248
# 
# Revision: 1
# Processed by: cddbd v1.5.2PL0 Copyright (c) Steve Scherf et al.
# Submitted via: BonkEnc v1.0.8
# 
DISCID=150cae12
DTITLE=Ray Charles - The Magic Of
DYEAR=1989
DGENRE=Jazz
TTITLE0=See, See Rider
TTITLE1=Georgia On My Mind
TTITLE2=I Found My Baby There
TTITLE3=Can Anyone Ask For More
TTITLE4=Hit The Road Jack
TTITLE5=Here We Go Again
TTITLE6=Let's Have A Ball
TTITLE7=Can't See You Darlin'
TTITLE8=I've Got A Woman
TTITLE9=This Love Of Mine
TTITLE10=Busted
TTITLE11=If I Give You My Love
TTITLE12=Goin' Down Slow
TTITLE13=Alone In The City
TTITLE14=Now She's Gone
TTITLE15=Rockin' Chair Blues
TTITLE16=A Sentimental Blues
TTITLE17=Take These Chains From My Heart
EXTD=YEAR: 1989
EXTT0=
EXTT1=
EXTT2=
EXTT3=
EXTT4=
EXTT5=
EXTT6=
EXTT7=
EXTT8=
EXTT9=
EXTT10=
EXTT11=
EXTT12=
EXTT13=
EXTT14=
EXTT15=
EXTT16=
EXTT17=
PLAYORDER=
